:SAMPLES-PER-SECOND 30
:FULLY-SPECIFIED
:DEGREES
62
root  36.4587 37.1018 -8.13606 -173.156 -76.7314 173.898
RightUpLeg  -37.1028 -8.20596 -1.13078
RightLeg  33.5541 -1.82149 -1.49184
RightFoot  -5.90253 -0.270329 4.83477
RightToes  0.00048216 0.542163 -0.142577
Spine  20.3548 -3.30177 -7.99231
Spine1  5.85255 -7.28968 9.31794
HEad  -31.4274 23.037 -11.3245
LeftShoulder1  7.22711 -11.9805 -40.399
LeftArm  -5.35766 -16.7985 -35.2109
LeftForeArm  41.8088 -52.7439 -11.3901
LeftHand  -0.25398 0.0180481 5.50724
RightShoulder  4.39603 8.09151 31.9728
RightArm  0.887812 -48.0448 38.7053
RightForeArm  1.30025 41.5803 9.88848
RightHand  -2.71254 7.05162 -25.3031
LeftUpLeg  7.06374 8.27637 -5.0284
LeftLeg  27.3953 8.04766 4.84943
LeftFoot  -29.2493 -0.55637 -4.71227
LeftToes  1.0625e-005 4.65855e-005 -8.18498e-006
63
root  33.7638 37.1049 -8.54884 177.153 -77.7064 -176.548
RightUpLeg  -35.5705 -8.14119 0.648308
RightLeg  31.2191 -2.22934 -1.7032
RightFoot  -6.34526 -0.182755 3.14966
RightToes  0.00048216 0.542163 -0.142577
Spine  19.5951 -4.91242 -5.89804
Spine1  4.57756 -8.85845 11.3382
HEad  -29.5178 25.2979 -13.6791
LeftShoulder1  6.80827 -11.4162 -39.4188
LeftArm  -5.52357 -13.5781 -35.658
LeftForeArm  42.4691 -58.0415 -14.1893
LeftHand  -0.25398 0.0180481 5.50724
RightShoulder  4.08988 7.94014 29.7813
RightArm  -7.1274 -53.6896 39.66
RightForeArm  1.53934 49.8322 13.238
RightHand  -3.19387 8.19018 -27.2201
LeftUpLeg  11.5765 8.0917 -1.71685
LeftLeg  27.4267 6.73301 4.1078
LeftFoot  -24.6325 -0.865326 -8.86314
LeftToes  1.0625e-005 4.65855e-005 -8.18498e-006
64
root  31.0083 37.1106 -9.01095 168.113 -78.2507 -168.284
RightUpLeg  -32.7954 -8.2412 1.53362
RightLeg  34.2844 -3.06304 -2.49838
RightFoot  -8.11862 -0.123992 2.62008
RightToes  0.00048216 0.542163 -0.142577
Spine  18.4322 -5.85535 -3.85447
Spine1  4.70365 -9.774 12.9852
HEad  -27.5474 26.5378 -15.721
LeftShoulder1  6.83634 -11.2396 -40.1073
LeftArm  -5.33845 -9.38413 -35.5742
LeftForeArm  43.0512 -60.4469 -15.7923
LeftHand  -0.25398 0.0180481 5.50724
RightShoulder  4.16779 8.3142 29.2868
RightArm  -13.07 -55.1689 39.298
RightForeArm  2.39764 55.8103 16.519
RightHand  -3.60486 9.19591 -28.5582
LeftUpLeg  12.1606 8.20449 0.778327
LeftLeg  34.7404 7.90697 6.328
LeftFoot  -13.7622 -0.176318 -8.77149
LeftToes  1.0625e-005 4.65855e-005 -8.18498e-006
65
root  28.3116 36.8758 -9.46653 159.623 -78.301 -160.652
RightUpLeg  -29.6484 -8.32865 2.07647
RightLeg  39.9642 -3.37783 -3.32871
RightFoot  -11.754 -0.0637559 3.9867
RightToes  0.00048216 0.542163 -0.142577
Spine  16.9659 -6.00693 -1.27502
Spine1  5.79776 -9.67234 14.0371
HEad  -25.8974 26.3974 -16.8408
LeftShoulder1  7.36284 -11.6408 -42.2097
LeftArm  -4.663 -4.66661 -34.884
LeftForeArm  43.9279 -60.361 -15.6586
LeftHand  -0.25398 0.0180481 5.50724
RightShoulder  4.40835 8.68719 30.202
RightArm  -16.5797 -51.7428 37.1676
RightForeArm  3.87058 58.3991 18.2843
RightHand  -3.55486 8.88094 -28.7562
LeftUpLeg  7.44689 7.67338 2.04783
LeftLeg  48.9757 8.77184 11.0646
LeftFoot  -0.894295 0.331066 -3.51911
LeftToes  1.0625e-005 4.65855e-005 -8.18498e-006
66
root  25.7947 36.3029 -9.86706 149.356 -77.5099 -150.807
RightUpLeg  -27.207 -8.0992 3.59699
RightLeg  45.9768 -3.95071 -4.70898
RightFoot  -16.9436 0.0869313 4.29059
RightToes  0.00048216 0.542163 -0.142577
Spine  15.9255 -5.41617 2.93016
Spine1  6.85528 -8.39851 14.5547
HEad  -25.2246 24.6369 -17.3426
LeftShoulder1  8.07482 -12.3016 -44.4985
LeftArm  -3.77834 0.799009 -34.1556
LeftForeArm  43.9398 -58.2919 -14.2493
LeftHand  -0.25398 0.0180481 5.50724
RightShoulder  4.68156 8.85541 31.9374
RightArm  -18.2103 -44.1685 33.6679
RightForeArm  4.61057 58.9346 18.6607
RightHand  -3.30615 7.94516 -28.6194
LeftUpLeg  -1.24905 6.37726 2.93157
LeftLeg  65.2339 5.9071 14.2319
LeftFoot  4.37857 -0.133946 0.988145
LeftToes  1.0625e-005 4.65855e-005 -8.18498e-006
67
root  23.3213 35.7595 -10.2586 140.963 -76.1611 -142.914
RightUpLeg  -23.9503 -7.93825 5.36957
RightLeg  50.0533 -4.28539 -5.83437
RightFoot  -22.7486 0.221055 3.72242
RightToes  0.00048216 0.542163 -0.142577
Spine  16.0091 -4.13736 7.34435
Spine1  7.10038 -6.22934 14.4144
HEad  -26.0743 21.6201 -17.9062
LeftShoulder1  8.64533 -12.8849 -46.0073
LeftArm  -3.2922 6.58163 -33.5425
LeftForeArm  41.4458 -53.4015 -11.785
LeftHand  -0.25398 0.0180481 5.50724
RightShoulder  5.11716 9.09345 34.657
RightArm  -18.7702 -32.9306 29.043
RightForeArm  4.20334 58.8522 18.6357
RightHand  -3.20846 7.52619 -28.6663
LeftUpLeg  -11.9516 5.2213 3.39749
LeftLeg  79.0658 2.04307 14.2072
LeftFoot  0.869685 -0.385577 3.62458
LeftToes  1.0625e-005 4.65855e-005 -8.18498e-006
68
root  20.8503 35.3219 -10.657 137.015 -74.8628 -140.129
RightUpLeg  -18.996 -7.66523 6.05794
RightLeg  52.4178 -3.81648 -5.71814
RightFoot  -28.4653 0.513318 4.64527
RightToes  0.00048216 0.542163 -0.142577
Spine  17.3611 -2.67081 10.8001
Spine1  6.8108 -3.70264 13.1564
HEad  -28.009 18.3437 -18.8633
LeftShoulder1  9.10629 -13.4453 -46.8801
LeftArm  -3.77307 12.0495 -32.1868
LeftForeArm  37.1299 -45.1548 -8.69841
LeftHand  -0.25398 0.0180481 5.50724
RightShoulder  5.72279 9.54164 37.8282
RightArm  -19.354 -18.1179 24.7553
RightForeArm  4.37078 58.5899 18.4018
RightHand  -3.11767 7.27219 -28.423
LeftUpLeg  -23.2022 4.701 3.34303
LeftLeg  87.337 -0.118618 13.1712
LeftFoot  -5.38956 -0.209636 4.4339
LeftToes  1.0625e-005 4.65855e-005 -8.18498e-006
69
root  18.333 34.8736 -11.061 137.788 -73.5029 -142.249
RightUpLeg  -13.1637 -6.50513 5.64111
RightLeg  53.9483 -3.63358 -5.78595
RightFoot  -33.2053 0.988248 6.30569
RightToes  0.00048216 0.542163 -0.142577
Spine  18.771 -1.32453 13.5952
Spine1  6.72585 -1.05434 10.1876
HEad  -30.0399 15.4883 -19.9327
LeftShoulder1  9.51059 -13.997 -47.4341
LeftArm  -5.30986 18.1317 -29.375
LeftForeArm  33.4231 -36.2893 -6.20164
LeftHand  -0.25398 0.0180481 5.50724
RightShoulder  6.20888 10.0485 39.7
RightArm  -20.331 -1.35073 23.9815
RightForeArm  8.12937 59.2629 18.5503
RightHand  -2.76555 6.2267 -27.508
LeftUpLeg  -33.7982 5.25218 3.04791
LeftLeg  88.0551 -0.258228 13.0375
LeftFoot  -9.50671 0.00914245 3.04546
LeftToes  1.0625e-005 4.65855e-005 -8.18498e-006
70
root  15.6107 34.5683 -11.5493 142.736 -72.3229 -147.977
RightUpLeg  -6.77531 -4.71641 4.3046
RightLeg  53.2879 -4.44298 -6.76599
RightFoot  -36.7536 1.24963 6.67318
RightToes  0.00048216 0.542163 -0.142577
Spine  19.0161 0.314478 15.4718
Spine1  6.66846 1.93385 5.41433
HEad  -31.0345 12.621 -19.7303
LeftShoulder1  9.50127 -14.1365 -47.0043
LeftArm  -7.91932 26.2674 -25.3618
LeftForeArm  31.1253 -31.1993 -5.06811
LeftHand  -0.25398 0.0180481 5.50724
RightShoulder  6.32912 10.4641 39.2193
RightArm  -19.7932 13.2143 29.1913
RightForeArm  17.0722 63.3624 21.6015
RightHand  -2.19046 4.35359 -25.9934
LeftUpLeg  -42.3591 6.99126 2.08086
LeftLeg  81.0028 1.36252 13.0049
LeftFoot  -11.7568 0.0810807 2.09195
LeftToes  1.0625e-005 4.65855e-005 -8.18498e-006
71
root  12.5864 34.6114 -12.2061 150.282 -72.4937 -155.942
RightUpLeg  1.14336 -3.57059 1.3936
RightLeg  48.7545 -4.7188 -6.166
RightFoot  -39.7756 1.53494 7.07911
RightToes  0.00048216 0.542163 -0.142577
Spine  18.0584 2.78697 15.6616
Spine1  5.90152 5.60572 -0.583344
HEad  -29.4006 8.56872 -16.3031
LeftShoulder1  8.69048 -13.4817 -44.5468
LeftArm  -12.1697 35.4201 -20.611
LeftForeArm  30.0764 -31.8086 -5.28125
LeftHand  -0.25398 0.0180481 5.50724
RightShoulder  6.05223 10.6259 36.8224
RightArm  -15.126 21.7411 39.1974
RightForeArm  30.9724 70.5501 30.5795
RightHand  -1.64867 2.61 -23.8774
LeftUpLeg  -47.4665 9.28314 -0.464818
LeftLeg  67.068 3.74548 10.6397
LeftFoot  -13.3046 0.104405 1.63252
LeftToes  1.0625e-005 4.65855e-005 -8.18498e-006
72
root  9.12119 34.7423 -13.0025 158.484 -73.7533 -164.709
RightUpLeg  10.9515 -3.3166 -2.74242
RightLeg  41.9209 -3.68797 -3.83059
RightFoot  -40.6698 2.49276 10.6568
RightToes  0.00048216 0.542163 -0.142577
Spine  15.8573 6.50367 15.2881
Spine1  4.53024 10.3468 -7.35515
HEad  -24.2138 2.26165 -9.326
LeftShoulder1  7.25456 -12.1951 -39.9384
LeftArm  -17.7221 42.9062 -15.4073
LeftForeArm  30.7439 -38.0893 -6.8973
LeftHand  -0.25398 0.0180481 5.50724
RightShoulder  5.45219 10.4066 33.235
RightArm  -6.94614 24.3609 49.6829
RightForeArm  47.5236 75.9451 44.21
RightHand  -1.42277 2.13214 -22.0009
LeftUpLeg  -48.3693 12.428 -4.36864
LeftLeg  49.3543 4.95012 6.57655
LeftFoot  -12.7226 0.070981 -1.64673
LeftToes  1.0625e-005 4.65855e-005 -8.18498e-006
73
root  5.17963 34.7202 -13.7721 163.227 -74.3596 -170.068
RightUpLeg  20.3796 -3.38821 -6.0191
RightLeg  36.9037 -4.94579 -4.20108
RightFoot  -33.8277 2.84092 15.5576
RightToes  0.00048216 0.542163 -0.142577
Spine  12.3903 11.4483 16.7054
Spine1  3.45139 16.1681 -14.7202
HEad  -17.3394 -6.18929 -0.974421
LeftShoulder1  5.84764 -10.8237 -34.758
LeftArm  -22.6951 47.0753 -10.1328
LeftForeArm  33.9556 -49.309 -10.5857
LeftHand  -0.25398 0.0180481 5.50724
RightShoulder  4.8108 10.2844 28.9215
RightArm  1.70288 24.0631 57.5878
RightForeArm  53.5189 76.9388 48.5693
RightHand  -1.59392 3.02804 -22.008
LeftUpLeg  -46.2514 17.4901 -8.27968
LeftLeg  34.5527 5.51529 4.37297
LeftFoot  -9.38777 0.155866 -5.61775
LeftToes  1.0625e-005 4.65855e-005 -8.18498e-006
74
root  1.11186 34.7694 -14.3993 160.508 -75.3622 -168.083
RightUpLeg  25.0547 -4.87963 -7.00039
RightLeg  38.8812 -9.37194 -8.43686
RightFoot  -16.3974 0.727188 14.4713
RightToes  0.00048216 0.542163 -0.142577
Spine  8.91851 15.6205 19.862
Spine1  3.48162 21.5846 -21.5405
HEad  -12.577 -14.6119 6.28826
LeftShoulder1  4.94237 -9.55806 -31.8205
LeftArm  -27.2597 46.5662 -5.51257
LeftForeArm  40.1826 -61.8313 -17.2903
LeftHand  -0.25398 0.0180481 5.50724
RightShoulder  4.53765 11.0557 25.0591
RightArm  8.62038 24.0312 62.54
RightForeArm  44.3027 74.3574 38.4834
RightHand  -2.10475 4.83841 -23.9084
LeftUpLeg  -42.7508 22.6354 -10.8899
LeftLeg  28.1161 6.23404 3.94413
LeftFoot  -4.38235 0.181756 -3.17141
LeftToes  1.0625e-005 4.65855e-005 -8.18498e-006
75
root  -2.59993 34.8226 -14.9351 140.474 -79.3503 -149.774
RightUpLeg  22.9225 -9.45694 -6.89686
RightLeg  50.5501 -8.9456 -11.6127
RightFoot  5.108 -1.34648 8.69498
RightToes  0.00048216 0.542163 -0.142577
Spine  7.35431 16.7426 21.3119
Spine1  3.96211 23.9351 -26.2358
HEad  -12.1527 -20.621 11.9811
LeftShoulder1  4.62018 -8.46688 -32.5512
LeftArm  -33.3718 41.0614 -4.28863
LeftForeArm  49.5184 -71.7436 -29.2311
LeftHand  -0.25398 0.0180481 5.50724
RightShoulder  4.6764 12.3209 23.3265
RightArm  13.3986 26.1719 64.7489
RightForeArm  31.4304 68.1395 25.9181
RightHand  -2.96789 7.40291 -26.8342
LeftUpLeg  -37.8 22.9545 -11.6233
LeftLeg  29.7216 5.73245 3.85834
LeftFoot  0.425015 -0.79566 7.54632
LeftToes  1.0625e-005 4.65855e-005 -8.18498e-006
